<svg xmlns="http://www.w3.org/2000/svg" viewBox="0 0 430 280"><defs><linearGradient id="r" x1="0" y1="0" x2="1" y2="1"><stop stop-color="#EAE5DD"/><stop offset=".55" stop-color="#B7B5BE"/><stop offset="1" stop-color="#8C91A3"/></linearGradient><filter id="s"><feDropShadow dx="0" dy="8" stdDeviation="6" flood-opacity=".14"/></filter></defs><g filter="url(#s)"><ellipse cx="215" cy="239" rx="180" ry="23" fill="#91D158"/><path d="M46 222c6-73 39-124 96-144 56 17 82 65 85 144z" fill="url(#r)"/><path d="M184 226c7-56 38-95 92-104 48 18 72 52 73 104z" fill="url(#r)"/><path d="M119 234c4-32 25-54 58-60 32 13 48 33 48 60z" fill="#C8C5C6"/><g fill="#6EBA50"><ellipse cx="66" cy="224" rx="49" ry="18" transform="rotate(-16 66 224)"/><ellipse cx="361" cy="224" rx="47" ry="17" transform="rotate(14 361 224)"/></g></g></svg>