<svg xmlns="http://www.w3.org/2000/svg" viewBox="0 0 360 500"><defs><linearGradient id="t" x1="0" y1="0" x2="1" y2="1"><stop stop-color="#F3A45C"/><stop offset="1" stop-color="#A65A32"/></linearGradient><linearGradient id="l" x1="0" y1="0" x2="0" y2="1"><stop stop-color="#E0B8FF"/><stop offset=".55" stop-color="#AA7DEA"/><stop offset="1" stop-color="#7551C7"/></linearGradient><filter id="s"><feDropShadow dx="0" dy="10" stdDeviation="8" flood-opacity=".15"/></filter></defs><g filter="url(#s)"><path fill="url(#t)" d="M150 432c13-77 15-132 9-176-25 37-53 59-87 74l-15-29c44-24 73-57 92-100l26 7c14-41 34-76 60-108l25 22c-29 39-47 82-54 128 19-24 43-46 72-65l18 27c-43 33-68 66-82 107 1 36 5 74 10 113z"/><g fill="url(#l)"><circle cx="88" cy="184" r="71"/><circle cx="162" cy="111" r="91"/><circle cx="251" cy="155" r="83"/><circle cx="282" cy="229" r="69"/><circle cx="189" cy="226" r="92"/><circle cx="103" cy="254" r="69"/></g><ellipse cx="183" cy="448" rx="112" ry="25" fill="#8ED35C"/></g></svg>